<svg xmlns="http://www.w3.org/2000/svg" width="128" height="128" viewBox="0 0 128 128">
  <defs>
    <linearGradient id="g" x1="0" y1="0" x2="1" y2="1">
      <stop offset="0" stop-color="#6c9cff"/>
      <stop offset="1" stop-color="#41dbc7"/>
    </linearGradient>
    <filter id="s" x="-20%" y="-20%" width="140%" height="140%">
      <feDropShadow dx="0" dy="2" stdDeviation="2" flood-color="#000" flood-opacity="0.35"/>
    </filter>
  </defs>
  <rect width="128" height="128" rx="20" fill="#121933"/>
  <g filter="url(#s)">
    <path d="M24 36h56a18 18 0 0 1 18 18v38H58a18 18 0 0 1-18-18V36z" fill="url(#g)" opacity="0.9"/>
    <path d="M24 36h38a18 18 0 0 1 18 18v38H42a18 18 0 0 1-18-18V36z" fill="#1a244d"/>
    <rect x="30" y="46" width="52" height="6" rx="3" fill="#cfe0ff"/>
    <rect x="30" y="60" width="44" height="6" rx="3" fill="#b2c6ff"/>
    <rect x="30" y="74" width="36" height="6" rx="3" fill="#9db4ff"/>
  </g>
  <text x="64" y="116" text-anchor="middle" font-family="Segoe UI, Roboto, Arial" font-size="14" fill="#dfe6ff" font-weight="700">Book Store</text>
</svg>
