<svg xmlns="http://www.w3.org/2000/svg" width="128" height="128" viewBox="0 0 128 128">
  <defs>
    <linearGradient id="grad" x1="0" y1="0" x2="1" y2="1">
      <stop offset="0" stop-color="#7aa7ff"/>
      <stop offset="1" stop-color="#9fe0d3"/>
    </linearGradient>
    <filter id="shadow" x="-20%" y="-20%" width="140%" height="140%">
      <feDropShadow dx="0" dy="4" stdDeviation="6" flood-color="#243473" flood-opacity="0.25"/>
    </filter>
  </defs>
  <rect width="128" height="128" rx="22" fill="#121933"/>
  <g filter="url(#shadow)">
    <!-- Open book shape -->
    <path d="M20 40c10-8 24-12 44-12s34 4 44 12v46c-10-8-24-12-44-12s-34 4-44 12V40z" fill="url(#grad)"/>
    <path d="M20 40c10-8 24-12 44-12v46c-20 0-34 4-44 12V40z" fill="#1a244d" opacity=".9"/>
    <!-- Page lines -->
    <rect x="30" y="46" width="34" height="4" rx="2" fill="#cfe0ff"/>
    <rect x="30" y="56" width="30" height="4" rx="2" fill="#b9d0ff"/>
    <rect x="30" y="66" width="26" height="4" rx="2" fill="#a9c6ff"/>
    <!-- Bookmark -->
    <path d="M86 34h12v34l-6-4-6 4V34z" fill="#ffb7c5"/>
  </g>
  <!-- Monogram -->
  <g fill="#eef3ff" font-family="Inter, Segoe UI, Roboto, Arial, sans-serif" font-weight="800" font-size="16">
    <text x="64" y="114" text-anchor="middle">Book Store</text>
  </g>
</svg>
